<svg width="227" height="75" viewBox="0 0 227 75" fill="none" xmlns="http://www.w3.org/2000/svg">
<path d="M100.6 0.199951H98.7L92.4 9.49995H86.4L72.7 0.199951H70.8L64.5 9.49995H58.5L44.8 0.199951H42.9L0.0999985 63.7V65.6L13.9 75H15.8L58.4 11.8V18.6L28 63.7V65.6L41.8 75H43.7L86.3 11.8V18.6L55.9 63.7V65.6L69.7 75H71.6L114.4 11.4999V9.59995L100.6 0.199951Z" fill="#1D4ED8"/>
<path d="M156.489 0.199951H154.589L148.289 9.49995H142.289L128.589 0.199951H126.689L83.8891 63.7V65.6L97.6891 75H99.5891L105.889 65.7H111.889L125.589 75H127.489L170.289 11.4999V9.59995L156.489 0.199951ZM111.989 63.4V56.6L142.189 11.8V18.6L111.989 63.4Z" fill="#1D4ED8"/>
<path d="M166.848 23.6V25.5L180.648 34.9H182.548L198.248 11.4999V9.59995L184.448 0.199951H182.548L166.848 23.6ZM226.148 11.4999V9.59995L212.348 0.199951H210.448L187.048 34.9V36.7999L200.848 46.2H202.748L226.148 11.4999ZM139.748 63.7V65.6L153.548 75H155.448L178.848 40.3V38.4L165.048 29H163.148L139.748 63.7ZM199.048 51.6V49.7L185.248 40.3H183.348L167.648 63.7V65.6L181.448 75H183.348L199.048 51.6Z" fill="#1D4ED8"/>
</svg>
